PathFileType	4	(X/Y/Z)	49_2_rein_37_p1_0-151_filt_butterworth.trc
DataRate	CameraRate	NumFrames	NumMarkers	Units	OrigDataRate	OrigDataStartFrame	OrigNumFrames
59.0	59.0	6	27	m	59.0	132	151
Frame#	Time	RHip			RKnee			RAnkle			RBigToe			RSmallToe			RHeel			LHip			LKnee			LAnkle			LBigToe			LSmallToe			LHeel			Neck			Head			Nose			RShoulder			RElbow			RWrist			RThumb			RIndex			RPinky			LShoulder			LElbow			LWrist			LThumb			LIndex			LPinky			
		X1	Y1	Z1	X2	Y2	Z2	X3	Y3	Z3	X4	Y4	Z4	X5	Y5	Z5	X6	Y6	Z6	X7	Y7	Z7	X8	Y8	Z8	X9	Y9	Z9	X10	Y10	Z10	X11	Y11	Z11	X12	Y12	Z12	X13	Y13	Z13	X14	Y14	Z14	X15	Y15	Z15	X16	Y16	Z16	X17	Y17	Z17	X18	Y18	Z18	X19	Y19	Z19	X20	Y20	Z20	X21	Y21	Z21	X22	Y22	Z22	X23	Y23	Z23	X24	Y24	Z24	X25	Y25	Z25	X26	Y26	Z26	X27	Y27	Z27	
132	2.23728813559322	0.3847005430478828	0.688656246525619	0.8783110746348564	0.370138852086075	0.17842330493435893	0.9713119142638941	0.3329658095887895	-0.2927539240220872	1.0338941998378461	0.3041203098577027	-0.29538335820606343	0.7995392951232172	0.3733242261205745	-0.2886713416290177	0.8114247216795674	0.3228251615917592	-0.3523320136742867	1.1004403653901895	0.17621451438700372	0.6880148152097253	0.8963538333204759	0.17454088044210328	0.1802426237406614	0.9723124600205508	0.18761971041084616	-0.26745900611633305	1.0182762271060937	0.15865873069740385	-0.27145795795282623	0.7921674801257104	0.1135591471692377	-0.29009476776859106	0.8528671154017257	0.20584517006750402	-0.35592099451684617	1.0967212023437622	0.2804766163589275	1.1828981884984304	0.8706936263653031	0.28150801345176396	1.4265527809726253	0.8288230833998396	0.27349551910581105	1.289535659443524	0.7822043886846763	0.43881516217370004	1.1139985655639426	0.8942268667310854	0.48741698045769705	0.8588331522564496	0.859605053786147	0.399721236768078	0.6482847124441425	0.7099954292146364	0.2894197285722118	0.5758104392522208	0.6489382660741674	0.2988264548023648	0.5362711741098853	0.6383245976488415	0.3337723531128927	0.5098090932630499	0.6996681838812274	0.11981594530397406	1.1327951961113305	0.926969113963271	0.06978843974723263	0.8893494252478575	0.8656788464101128	0.13125512733894473	0.6552080693856002	0.7454695137894893	0.19986349159584726	0.5781599946936987	0.7030312524730764	0.17964663647912615	0.5563254720741662	0.6867983938736211	0.16031973260110174	0.5263218904538183	0.7404874781170623	
133	2.254237288135593	0.38463834362485205	0.6884293832576829	0.8785129089885321	0.3706658310853172	0.18003309720626182	0.9711930940117854	0.33271248785644164	-0.2920742486887183	1.0331687278858703	0.30420325522512476	-0.2921956896153962	0.7963525591718598	0.37332573961972854	-0.2883782842041496	0.811154307743145	0.3232744903788758	-0.35306215540896607	1.1022078122363073	0.17547393077633994	0.6872308472229771	0.8993395758240839	0.1744068429045397	0.17995711320666014	0.9725270911254226	0.18722009465428732	-0.26654018354370757	1.0169172605020662	0.15869626693150596	-0.27125580109523134	0.7921352234771908	0.11395733211332952	-0.28700054438330513	0.8494598638222683	0.20536664030600815	-0.3572879778243874	1.098377708181086	0.2804204887590964	1.1820191677768137	0.870583099902124	0.28151173498849835	1.4262985136022772	0.8288330210304569	0.2734605973211665	1.2895386190627796	0.7822095996772945	0.4388176950180458	1.114045122964851	0.8941499185998139	0.48727296289403343	0.8596951034911829	0.8598272113658112	0.39323961843324207	0.6505916814580662	0.7058821359196761	0.2842795734509948	0.5796593772331253	0.6478532848061038	0.2935826227371199	0.5378274163159368	0.6402313379166007	0.3214770694058615	0.5153313598994109	0.6957180885021953	0.11981997907373491	1.1327945642319244	0.926952836445808	0.06965486357553455	0.8908068847266268	0.8678664293465281	0.13418155196368803	0.6565462552605282	0.7454042440562663	0.2068487881603959	0.5808168894258373	0.7001690342896312	0.19155651897729087	0.5618498782280552	0.6781710801924119	0.17521944148407786	0.531847841684962	0.7380650273218146	
134	2.2711864406779663	0.3846109134117205	0.6881361308266024	0.8786187507095142	0.37093008152069984	0.18135333681877164	0.971007263818328	0.3324039854882194	-0.2912420425130088	1.0322730026225495	0.30430699106418	-0.28978471176984166	0.7938465746611187	0.3733186190611426	-0.28815087722420873	0.8109645024065165	0.3236636037440939	-0.3536291379362615	1.1035582038867293	0.17470382168648202	0.6861280862092616	0.9024328409239557	0.17427949442366827	0.17953059865594145	0.9725413878689323	0.18679056729377394	-0.26551395377381	1.0154650231742197	0.15870975123210349	-0.27112820015320255	0.7921170887354464	0.11421657060791268	-0.2848319169537879	0.8474224900248742	0.20490031152518817	-0.35868057033956985	1.100001279589916	0.28051083739528027	1.1810678151342857	0.8704603145945866	0.28153332951454946	1.4257127043257176	0.8288196916505506	0.2734656131822713	1.2895500705198464	0.7822690380902081	0.4388299037070338	1.1140732496516268	0.8941124897112567	0.48711538683332356	0.8604494690222739	0.8601882528538265	0.388041480737757	0.6522802929344121	0.7041171869556974	0.27824486175850144	0.5830909739266386	0.648613722684509	0.28661775805020556	0.540332200056118	0.6444414049590796	0.30912892091471167	0.5215191516714652	0.6919254148790476	0.11982240285885791	1.1327902955840403	0.9269375527162509	0.06960601001486175	0.891714924657985	0.8695125513236508	0.13736528186113597	0.6574890955679074	0.7452327766387261	0.2120481250824549	0.5838197844545323	0.7004777581099173	0.20254468174274828	0.5656155455282905	0.6744614002883116	0.19036859204641415	0.5368277123536376	0.7364765582299642	
135	2.288135593220339	0.3846009622617568	0.6876765956930151	0.8787469283788009	0.3708877064880436	0.18231550427870258	0.9707373111365181	0.3320316927864728	-0.2902498980723449	1.0311906093130203	0.30434653562164427	-0.2883102789324408	0.7918630778777529	0.37332116853678826	-0.2880330684201589	0.8109338010320268	0.3239451813760066	-0.35406079164792426	1.1045725459925984	0.17390776091818877	0.6846887162517972	0.9054936171634238	0.17418185456461396	0.1790566538202285	0.9723112407398871	0.18638079519729966	-0.26443481919406736	1.0140818015641488	0.15868911455513637	-0.2711430999064825	0.7921102272494358	0.1141934302826923	-0.28406826005137104	0.8471271146106554	0.20447104869699786	-0.36006389099628344	1.101567243320072	0.2808245130086127	1.1804685699655566	0.8703640814452669	0.28156330636580584	1.4249988644468052	0.8287974340185117	0.27348562857943504	1.2895739214068276	0.7823226936230998	0.4388471070400439	1.1140848090722861	0.8940982253189006	0.48696113934705243	0.8609837867993717	0.8606977989958209	0.3837009120231577	0.6531906465201105	0.7050276142683678	0.2714266021896595	0.58515706748251	0.6529014476350788	0.27765262902242105	0.543398611765582	0.6527484229996323	0.29707796986986634	0.5276574029011568	0.6902336125484865	0.11982295609359678	1.1327855779045028	0.9269241095570778	0.06963140212870828	0.8922919077668037	0.8704631608285154	0.1408215437906675	0.6582357023839324	0.7449140518293795	0.21616873516447965	0.5880787681579234	0.7029519346320501	0.21171566907222225	0.5677709778521425	0.6758503844807511	0.20407394494228365	0.5408154890065219	0.7361965853083918	
136	2.305084745762712	0.3846192102634703	0.6869147544095164	0.8790121484036153	0.37055644789904785	0.18289622316063525	0.9703878437813614	0.3315988421243506	-0.2891273421859075	1.0299366943578785	0.30429261361496124	-0.28757545461929623	0.7905328329099023	0.3733378389709062	-0.28804274268219837	0.8111274034992767	0.3240555480550665	-0.35439321943885865	1.1053564601005204	0.17308087265673336	0.6829412102372112	0.9084537994194203	0.17414292884535693	0.1786508003619623	0.9718913165822385	0.18602999392832328	-0.2633579631256938	1.012892368793578	0.15864602996740876	-0.2713166353402408	0.7921108407256143	0.11373835803527299	-0.2847910200312642	0.8485350558247956	0.20410463989738653	-0.36135907023012814	1.1030449928633312	0.2813434300385622	1.1804863306861209	0.8703143286999828	0.2815936749389954	1.424270539295224	0.8287618509982769	0.27350813206102514	1.2895962653274393	0.7823575898554808	0.4388506308186999	1.114092537099632	0.8940489076037796	0.4868784715712897	0.8612749691898806	0.8610291752784297	0.37963794055627464	0.6534694178678324	0.7083150133324867	0.26403866815976695	0.5858181079218269	0.661214913653855	0.26717325372446943	0.5467914564932921	0.6650905249613885	0.28560150771383136	0.5332331660979177	0.6922172920407061	0.11982076861600399	1.1327818336046458	0.9269126069049399	0.06965484260415346	0.8928192087215087	0.8705970453179774	0.14449122636555906	0.6591984570781323	0.7447209113915777	0.21982377966228778	0.5939547910464928	0.706026518175317	0.21860304329317176	0.5688728476922328	0.6808117200014492	0.21491396673399973	0.5436833804229191	0.7372072300088971	
137	2.3220338983050848	0.38468441767093037	0.6858019721055257	0.8794289057691429	0.3700042025984135	0.1830772587145449	0.969969130335586	0.33113921513169287	-0.2879539609558971	1.0286203352564456	0.30415766211766826	-0.2870248181725922	0.7898649249651035	0.3733671264658624	-0.28813622895624585	0.8115416210026795	0.32395095941937957	-0.35464308952787726	1.1059575191369535	0.17221335951003663	0.6809142178020862	0.9113420170612705	0.17418576352421364	0.17838168119927322	0.9713172290074232	0.18575840798607837	-0.2623253942660494	1.0119363213047288	0.1586369296388852	-0.27155096551905517	0.7921416052069231	0.11301203557650707	-0.2864109425718703	0.8508772032206816	0.2038240519582671	-0.3624594495386894	1.1043962034251857	0.2819904626917903	1.1810554638376933	0.8702991681427646	0.2816198370410259	1.4235888590511279	0.8287144923819179	0.2735322169138882	1.289586191954398	0.7823888001068111	0.4388056726472347	1.1141120696915405	0.8938667197578294	0.4869652542436612	0.8613421799433875	0.860634341895961	0.3755639372265738	0.6535224058505823	0.7131950299959735	0.25653040822038264	0.5861120662430173	0.6726550679841103	0.25623675457323114	0.5503931230058762	0.6798678802755929	0.27499737153194415	0.537969979149409	0.6984077843830472	0.11981548261528582	1.1327792447848613	0.9269029151696788	0.06956697390813481	0.8934457362160627	0.869941862142976	0.14832815826320905	0.6608945999111059	0.7449202524811005	0.22341157998501476	0.6010846200549248	0.7085338937160908	0.2234191077262296	0.5698158572462977	0.6864132212927896	0.22207034787703211	0.545995158802189	0.7387523423593854	
